<mxfile host="app.diagrams.net" modified="2021-07-19T13:29:14.914Z" agent="5.0 (Windows NT 10.0; Win64; x64) AppleWebKit/537.36 (KHTML, like Gecko) Chrome/91.0.4472.164 Safari/537.36" etag="NZIf-aXUzjHzfqJcgGCT" version="14.4.7" type="github">
  <diagram id="-THloqpTqD0Sc_wY_-kg" name="Page-1">
    <mxGraphModel dx="584" dy="2403" grid="1" gridSize="10" guides="1" tooltips="1" connect="1" arrows="1" fold="1" page="1" pageScale="1" pageWidth="2000" pageHeight="2000" math="0" shadow="0">
      <root>
        <mxCell id="0" />
        <mxCell id="1" parent="0" />
        <mxCell id="saKHfnPTgqrWqYb_n48D-1" value="&lt;font style=&quot;font-size: 9px&quot;&gt;&lt;font&gt;Compañeros que ingresan:&lt;br&gt;&lt;br&gt;Mairia del Pilar - Costa Rica - Diseñadora&lt;br&gt;Daniel Cardona - Marketing&lt;br&gt;&lt;/font&gt;Carlos Jimenez Rodriguez - DEV&lt;/font&gt;" style="text;html=1;strokeColor=#66FFB3;fillColor=none;align=center;verticalAlign=middle;whiteSpace=wrap;rounded=0;" vertex="1" parent="1">
          <mxGeometry x="30" y="-340" width="180" height="70" as="geometry" />
        </mxCell>
        <mxCell id="saKHfnPTgqrWqYb_n48D-4" value="" style="edgeStyle=orthogonalEdgeStyle;rounded=0;orthogonalLoop=1;jettySize=auto;html=1;" edge="1" parent="1" source="saKHfnPTgqrWqYb_n48D-2" target="saKHfnPTgqrWqYb_n48D-3">
          <mxGeometry relative="1" as="geometry" />
        </mxCell>
        <mxCell id="saKHfnPTgqrWqYb_n48D-5" style="edgeStyle=orthogonalEdgeStyle;rounded=0;orthogonalLoop=1;jettySize=auto;html=1;exitX=0.5;exitY=1;exitDx=0;exitDy=0;" edge="1" parent="1" source="saKHfnPTgqrWqYb_n48D-2" target="saKHfnPTgqrWqYb_n48D-1">
          <mxGeometry relative="1" as="geometry">
            <Array as="points">
              <mxPoint x="300" y="-360" />
              <mxPoint x="120" y="-360" />
            </Array>
          </mxGeometry>
        </mxCell>
        <mxCell id="saKHfnPTgqrWqYb_n48D-2" value="Vozy&amp;nbsp;" style="text;html=1;strokeColor=none;fillColor=#FFCC99;align=center;verticalAlign=middle;whiteSpace=wrap;rounded=0;" vertex="1" parent="1">
          <mxGeometry x="280" y="-390" width="40" height="20" as="geometry" />
        </mxCell>
        <mxCell id="saKHfnPTgqrWqYb_n48D-3" value="&lt;font style=&quot;font-size: 9px&quot;&gt;Contac center con IA&lt;/font&gt;" style="whiteSpace=wrap;html=1;rounded=0;strokeColor=none;fillColor=#E6E6E6;" vertex="1" parent="1">
          <mxGeometry x="255" y="-340" width="90" height="30" as="geometry" />
        </mxCell>
      </root>
    </mxGraphModel>
  </diagram>
</mxfile>
